<svg class="main-svg" xmlns="http://www.w3.org/2000/svg" xmlns:xlink="http://www.w3.org/1999/xlink" width="900" height="500" style="" viewBox="0 0 900 500"><rect x="0" y="0" width="900" height="500" style="fill: rgb(255, 255, 255); fill-opacity: 1;"/><defs id="defs-de7cea"><g class="clips"><clipPath id="clipde7ceaxyplot" class="plotclip"><rect width="675" height="435"/></clipPath><clipPath class="axesclip" id="clipde7ceax"><rect x="60" y="0" width="675" height="500"/></clipPath><clipPath class="axesclip" id="clipde7ceay"><rect x="0" y="25" width="900" height="435"/></clipPath><clipPath class="axesclip" id="clipde7ceaxy"><rect x="60" y="25" width="675" height="435"/></clipPath></g><g class="gradients"/></defs><g class="bglayer"/><g class="layer-below"><g class="imagelayer"/><g class="shapelayer"/></g><g class="cartesianlayer"><g class="subplot xy"><g class="layer-subplot"><g class="shapelayer"/><g class="imagelayer"/></g><g class="gridlayer"><g class="x"><path class="xgrid crisp" transform="translate(132.72,0)" d="M0,25v435" style="stroke: rgb(238, 238, 238); stroke-opacity: 1; stroke-width: 1px;"/><path class="xgrid crisp" transform="translate(246.46,0)" d="M0,25v435" style="stroke: rgb(238, 238, 238); stroke-opacity: 1; stroke-width: 1px;"/><path class="xgrid crisp" transform="translate(360.21,0)" d="M0,25v435" style="stroke: rgb(238, 238, 238); stroke-opacity: 1; stroke-width: 1px;"/><path class="xgrid crisp" transform="translate(475.81,0)" d="M0,25v435" style="stroke: rgb(238, 238, 238); stroke-opacity: 1; stroke-width: 1px;"/><path class="xgrid crisp" transform="translate(589.56,0)" d="M0,25v435" style="stroke: rgb(238, 238, 238); stroke-opacity: 1; stroke-width: 1px;"/><path class="xgrid crisp" transform="translate(703.3,0)" d="M0,25v435" style="stroke: rgb(238, 238, 238); stroke-opacity: 1; stroke-width: 1px;"/></g><g class="y"><path class="ygrid crisp" transform="translate(0,388.99)" d="M60,0h675" style="stroke: rgb(238, 238, 238); stroke-opacity: 1; stroke-width: 1px;"/><path class="ygrid crisp" transform="translate(0,337.13)" d="M60,0h675" style="stroke: rgb(238, 238, 238); stroke-opacity: 1; stroke-width: 1px;"/><path class="ygrid crisp" transform="translate(0,285.28)" d="M60,0h675" style="stroke: rgb(238, 238, 238); stroke-opacity: 1; stroke-width: 1px;"/><path class="ygrid crisp" transform="translate(0,233.43)" d="M60,0h675" style="stroke: rgb(238, 238, 238); stroke-opacity: 1; stroke-width: 1px;"/><path class="ygrid crisp" transform="translate(0,181.57)" d="M60,0h675" style="stroke: rgb(238, 238, 238); stroke-opacity: 1; stroke-width: 1px;"/><path class="ygrid crisp" transform="translate(0,129.72)" d="M60,0h675" style="stroke: rgb(238, 238, 238); stroke-opacity: 1; stroke-width: 1px;"/><path class="ygrid crisp" transform="translate(0,77.86)" d="M60,0h675" style="stroke: rgb(238, 238, 238); stroke-opacity: 1; stroke-width: 1px;"/><path class="ygrid crisp" transform="translate(0,26.01)" d="M60,0h675" style="stroke: rgb(238, 238, 238); stroke-opacity: 1; stroke-width: 1px;"/></g></g><g class="zerolinelayer"><path class="yzl zl crisp" transform="translate(0,440.84)" d="M60,0h675" style="stroke: rgb(68, 68, 68); stroke-opacity: 1; stroke-width: 1px;"/></g><path class="xlines-below"/><path class="ylines-below"/><g class="overlines-below"/><g class="xaxislayer-below"/><g class="yaxislayer-below"/><g class="overaxes-below"/><g class="plot" transform="translate(60, 25)" clip-path="url('#clipde7ceaxyplot')"><g class="scatterlayer mlayer"><g class="trace scatter trace4a96c9" style="stroke-miterlimit: 2; opacity: 1;"><g class="fills"/><g class="errorbars"/><g class="lines"><path class="js-line" d="M102.56,408.06L104.42,395.1L106.28,389.92L108.15,379.54L110.01,376.95L111.88,374.36L113.74,369.17L115.61,363.99L117.47,356.21L119.34,348.43L121.2,345.84L123.07,343.25L124.93,332.88L126.8,325.1L128.66,325.1L130.52,325.1L132.39,312.13L134.25,312.13L136.12,304.36L137.98,301.76L139.85,296.58L143.58,283.61L145.44,278.43L147.31,275.84L149.17,275.84L151.04,273.24L152.9,268.06L154.77,257.69L156.63,257.69L158.49,252.5L160.36,249.91L164.09,249.91L165.95,252.5L167.82,249.91L169.68,249.91L173.41,236.95L175.28,239.54L179.01,239.54L180.87,236.95L184.6,236.95L186.46,234.35L188.33,234.35L190.19,236.95L192.06,239.54L193.92,236.95L195.79,239.54L197.65,239.54L203.25,239.54L205.11,236.95L206.98,234.35L208.84,234.35L214.43,242.13L216.3,242.13L218.16,244.72L220.03,244.72L221.89,247.32L223.76,247.32L229.35,255.09L231.22,252.5L233.08,252.5L234.94,255.09L238.67,260.28L240.54,265.47L242.4,268.06L244.27,268.06L246.13,270.65L248,270.65L253.59,278.43L255.46,278.43L257.32,281.02L259.19,281.02L261.05,283.61L262.91,283.61L264.78,286.21L266.64,286.21L268.51,286.21L270.37,288.8L275.97,288.8L277.83,293.99L281.56,293.99L283.43,296.58L285.29,296.58L287.15,299.17L289.02,299.17L290.88,301.76L292.75,304.36L294.61,304.36L298.34,304.36L300.21,306.95L302.07,309.54L303.94,309.54L305.8,309.54L307.67,312.13L313.26,312.13L315.12,314.73L322.58,314.73L324.45,317.32L337.5,317.32L339.36,319.91L341.23,319.91L343.09,322.5L350.55,322.5L352.42,325.1L358.01,325.1L359.88,327.69L369.2,327.69L371.06,330.28L382.25,330.28L384.12,332.88L406.49,332.88L408.36,335.47L432.6,335.47L434.46,338.06L495.99,338.06L497.86,340.65L546.34,340.65L548.2,343.25L578.04,343.25L579.9,345.84L602.28,345.84L604.14,348.43L635.84,348.43L637.71,351.02L675,351.02" style="vector-effect: non-scaling-stroke; fill: none; stroke: rgb(213, 62, 79); stroke-opacity: 1; stroke-width: 2px; opacity: 1;"/></g><g class="points"/><g class="text"/></g><g class="trace scatter trace246398" style="stroke-miterlimit: 2; opacity: 1;"><g class="fills"/><g class="errorbars"/><g class="lines"><path class="js-line" d="M0,335.47L1.86,343.25L3.73,343.25L5.59,338.06L7.46,345.84L9.32,340.65L11.19,353.62L13.05,358.8L14.92,361.4L16.78,358.8L18.65,358.8L22.38,358.8L24.24,361.4L29.83,361.4L31.7,358.8L37.29,351.02L39.16,351.02L41.02,356.21L42.89,356.21L52.21,343.25L54.07,338.06L55.94,338.06L57.8,332.88L59.67,332.88L61.53,327.69L63.4,327.69L65.26,325.1L68.99,325.1L70.86,322.5L74.59,322.5L76.45,319.91L80.18,319.91L82.04,317.32L85.77,317.32L87.64,314.73L96.96,314.73L98.83,312.13L158.49,312.13L160.36,273.24L322.58,273.24L324.45,275.84L350.55,275.84L352.42,278.43L402.76,278.43L404.63,281.02L406.49,281.02L408.36,278.43L436.33,278.43L438.19,281.02L566.85,281.02L568.72,283.61L600.41,283.61L602.28,286.21L658.22,286.21L660.08,288.8L675,288.8" style="vector-effect: non-scaling-stroke; fill: none; stroke: rgb(244, 109, 67); stroke-opacity: 1; stroke-width: 2px; opacity: 1;"/></g><g class="points"/><g class="text"/></g><g class="trace scatter tracedd1cf6" style="stroke-miterlimit: 2; opacity: 1;"><g class="fills"/><g class="errorbars"/><g class="lines"><path class="js-line" d="M87.64,410.66L89.5,413.25L91.37,410.66L93.23,413.25L95.1,410.66L100.69,410.66L102.56,408.06L104.42,410.66L106.28,408.06L108.15,408.06L110.01,405.47L113.74,405.47L115.61,402.88L117.47,400.29L119.34,400.29L137.98,374.36L139.85,369.17L141.71,366.58L143.58,361.4L147.31,356.21L149.17,358.8L151.04,353.62L152.9,351.02L154.77,351.02L156.63,343.25L158.49,340.65L160.36,335.47L162.22,335.47L164.09,332.88L175.28,317.32L177.14,317.32L179.01,314.73L180.87,314.73L184.6,309.54L186.46,309.54L190.19,309.54L192.06,306.95L193.92,306.95L195.79,304.36L197.65,301.76L199.52,301.76L205.11,301.76L206.98,299.17L220.03,299.17L221.89,296.58L238.67,296.58L240.54,293.99L281.56,293.99L283.43,296.58L315.12,296.58L316.99,299.17L339.36,299.17L341.23,301.76L354.28,301.76L356.15,304.36L369.2,304.36L371.06,306.95L378.52,306.95L380.39,309.54L389.71,309.54L391.57,312.13L399.03,312.13L400.9,314.73L406.49,314.73L408.36,317.32L417.68,317.32L419.54,319.91L428.87,319.91L430.73,322.5L440.06,322.5L441.92,325.1L447.51,325.1L449.38,327.69L458.7,327.69L460.57,330.28L468.02,330.28L469.89,332.88L477.35,332.88L479.21,335.47L482.94,335.47L484.81,338.06L488.54,338.06L490.4,340.65L494.13,340.65L495.99,343.25L497.86,343.25L499.72,345.84L503.45,345.84L505.32,348.43L507.18,348.43L509.05,351.02L510.91,351.02L512.78,353.62L514.64,356.21L516.51,356.21L518.37,358.8L520.23,358.8L522.1,361.4L523.96,361.4L525.83,363.99L527.69,363.99L529.56,366.58L531.42,366.58L533.29,366.58L535.15,369.17L537.02,369.17L538.88,371.77L544.48,371.77L546.34,374.36L559.39,374.36L561.26,376.95L581.77,376.95L583.63,374.36L607.87,374.36L609.74,371.77L620.93,371.77L622.79,369.17L633.98,369.17L635.84,366.58L645.17,366.58L647.03,363.99L650.76,363.99L652.62,361.4L660.08,361.4L661.95,358.8L667.54,358.8L669.41,356.21L675,356.21" style="vector-effect: non-scaling-stroke; fill: none; stroke: rgb(253, 174, 97); stroke-opacity: 1; stroke-width: 2px; opacity: 1;"/></g><g class="points"/><g class="text"/></g><g class="trace scatter trace04981b" style="stroke-miterlimit: 2; opacity: 1;"><g class="fills"/><g class="errorbars"/><g class="lines"><path class="js-line" d="M91.37,374.36L93.23,379.54L95.1,353.62L96.96,363.99L98.83,369.17L100.69,371.77L102.56,361.4L104.42,366.58L106.28,361.4L108.15,363.99L110.01,384.73L111.88,369.17L113.74,363.99L117.47,369.17L119.34,343.25L121.2,356.21L123.07,353.62L124.93,348.43L126.8,348.43L128.66,351.02L130.52,340.65L132.39,343.25L134.25,343.25L141.71,343.25L143.58,338.06L145.44,327.69L147.31,332.88L151.04,322.5L152.9,327.69L154.77,327.69L156.63,330.28L158.49,330.28L160.36,327.69L164.09,332.88L165.95,332.88L169.68,332.88L171.55,335.47L173.41,332.88L175.28,335.47L177.14,332.88L179.01,332.88L180.87,332.88L182.73,330.28L190.19,330.28L192.06,327.69L197.65,327.69L199.52,330.28L203.25,330.28L205.11,332.88L206.98,330.28L208.84,330.28L210.7,332.88L212.57,332.88L216.3,332.88L218.16,335.47L221.89,335.47L223.76,338.06L225.62,338.06L227.49,340.65L234.94,340.65L236.81,343.25L238.67,340.65L240.54,340.65L242.4,343.25L244.27,343.25L261.05,343.25L262.91,340.65L270.37,340.65L272.24,327.69L274.1,330.28L275.97,330.28L277.83,330.28L279.7,332.88L285.29,332.88L287.15,335.47L290.88,335.47L292.75,338.06L298.34,338.06L300.21,340.65L305.8,340.65L307.67,343.25L313.26,343.25L315.12,345.84L318.85,345.84L320.72,348.43L328.18,348.43L330.04,351.02L333.77,351.02L335.64,353.62L341.23,353.62L343.09,356.21L348.69,356.21L350.55,358.8L356.15,358.8L358.01,361.4L367.33,361.4L369.2,363.99L380.39,363.99L382.25,366.58L399.03,366.58L400.9,369.17L415.81,369.17L417.68,371.77L436.33,371.77L438.19,374.36L477.35,374.36L479.21,376.95L624.65,376.95L626.52,379.54L675,379.54" style="vector-effect: non-scaling-stroke; fill: none; stroke: rgb(254, 224, 139); stroke-opacity: 1; stroke-width: 2px; opacity: 1;"/></g><g class="points"/><g class="text"/></g><g class="trace scatter trace1fd1df" style="stroke-miterlimit: 2; opacity: 1;"><g class="fills"/><g class="errorbars"/><g class="lines"><path class="js-line" d="M55.94,286.21L59.67,366.58L61.53,335.47L63.4,335.47L65.26,348.43L67.13,348.43L68.99,353.62L70.86,348.43L72.72,363.99L76.45,332.88L78.31,325.1L82.04,306.95L83.91,312.13L85.77,286.21L87.64,286.21L89.5,255.09L91.37,244.72L93.23,242.13L95.1,229.17L96.96,239.54L98.83,226.57L100.69,216.2L102.56,211.02L104.42,200.65L106.28,200.65L117.47,153.98L119.34,151.39L121.2,141.01L123.07,135.83L124.93,130.64L126.8,120.27L130.52,107.31L132.39,102.12L134.25,96.94L136.12,96.94L137.98,96.94L139.85,91.75L143.58,86.57L145.44,86.57L147.31,83.98L149.17,83.98L151.04,86.57L152.9,83.98L154.77,78.79L156.63,76.2L158.49,76.2L160.36,73.6L164.09,73.6L165.95,71.01L167.82,68.42L169.68,68.42L171.55,68.42L173.41,65.83L179.01,65.83L180.87,63.23L186.46,63.23L188.33,60.64L192.06,60.64L193.92,58.05L195.79,58.05L197.65,55.46L203.25,55.46L205.11,52.86L208.84,52.86L210.7,50.27L214.43,50.27L216.3,47.68L223.76,47.68L225.62,45.08L242.4,45.08L244.27,42.49L257.32,42.49L259.19,39.9L298.34,39.9L300.21,42.49L330.04,42.49L331.91,45.08L348.69,45.08L350.55,47.68L363.6,47.68L365.47,50.27L372.93,50.27L374.79,52.86L380.39,52.86L382.25,55.46L384.12,52.86L385.98,55.46L391.57,55.46L393.44,58.05L395.3,58.05L397.17,60.64L399.03,60.64L400.9,63.23L402.76,63.23L404.63,65.83L406.49,68.42L408.36,68.42L412.09,73.6L413.95,73.6L415.81,76.2L417.68,76.2L421.41,81.38L423.27,81.38L425.14,83.98L427,83.98L430.73,89.16L432.6,89.16L436.33,94.35L438.19,94.35L440.06,96.94L441.92,96.94L443.78,99.53L445.65,99.53L449.38,104.72L451.24,104.72L453.11,107.31L454.97,107.31L456.84,109.9L458.7,109.9L462.43,115.09L464.3,115.09L466.16,117.68L468.02,117.68L475.48,128.05L477.35,128.05L484.81,138.42L486.67,143.61L488.54,148.79L490.4,151.39L492.27,153.98L494.13,159.16L501.59,179.91L503.45,187.68L509.05,203.24L510.91,211.02L516.51,231.76L518.37,236.95L520.23,242.13L522.1,249.91L523.96,255.09L525.83,262.87L531.42,278.43L533.29,281.02L535.15,286.21L537.02,288.8L540.75,299.17L542.61,301.76L544.48,304.36L546.34,304.36L555.66,317.32L557.53,317.32L559.39,317.32L561.26,319.91L563.12,319.91L564.99,322.5L566.85,322.5L568.72,325.1L675,325.1" style="vector-effect: non-scaling-stroke; fill: none; stroke: rgb(255, 255, 191); stroke-opacity: 1; stroke-width: 2px; opacity: 1;"/></g><g class="points"/><g class="text"/></g><g class="trace scatter traceaa3541" style="stroke-miterlimit: 2; opacity: 1;"><g class="fills"/><g class="errorbars"/><g class="lines"><path class="js-line" d="M106.28,402.88L110.01,408.06L111.88,408.06L113.74,410.66L115.61,410.66L117.47,402.88L119.34,405.47L121.2,405.47L123.07,408.06L124.93,402.88L126.8,402.88L130.52,392.51L132.39,395.1L134.25,395.1L136.12,392.51L139.85,397.69L141.71,395.1L143.58,397.69L145.44,395.1L158.49,395.1L160.36,392.51L162.22,392.51L164.09,395.1L165.95,392.51L167.82,392.51L180.87,392.51L182.73,389.92L190.19,389.92L192.06,392.51L220.03,392.51L221.89,389.92L231.22,389.92L233.08,387.32L240.54,387.32L242.4,384.73L253.59,384.73L255.46,382.14L272.24,382.14L274.1,379.54L298.34,379.54L300.21,376.95L316.99,376.95L318.85,374.36L352.42,374.36L354.28,371.77L440.06,371.77L441.92,369.17L484.81,369.17L486.67,371.77L589.23,371.77L591.09,369.17L592.96,369.17L594.82,371.77L596.69,371.77L598.55,369.17L675,369.17" style="vector-effect: non-scaling-stroke; fill: none; stroke: rgb(230, 245, 152); stroke-opacity: 1; stroke-width: 2px; opacity: 1;"/></g><g class="points"/><g class="text"/></g><g class="trace scatter tracea35f14" style="stroke-miterlimit: 2; opacity: 1;"><g class="fills"/><g class="errorbars"/><g class="lines"><path class="js-line" d="M76.45,400.29L80.18,384.73L82.04,382.14L85.77,351.02L87.64,348.43L89.5,361.4L91.37,353.62L93.23,353.62L95.1,351.02L98.83,319.91L100.69,327.69L102.56,299.17L104.42,299.17L106.28,296.58L108.15,283.61L110.01,275.84L111.88,255.09L117.47,223.98L119.34,218.8L121.2,213.61L123.07,203.24L126.8,187.68L128.66,187.68L134.25,172.13L136.12,169.53L137.98,166.94L139.85,161.76L147.31,151.39L149.17,151.39L154.77,143.61L156.63,143.61L158.49,146.2L160.36,143.61L162.22,143.61L164.09,148.79L165.95,146.2L167.82,146.2L171.55,146.2L173.41,128.05L175.28,128.05L177.14,125.46L179.01,125.46L180.87,122.87L184.6,117.68L186.46,120.27L188.33,115.09L190.19,115.09L192.06,112.5L193.92,112.5L195.79,112.5L197.65,109.9L201.38,109.9L203.25,107.31L205.11,109.9L206.98,109.9L208.84,107.31L210.7,107.31L216.3,107.31L218.16,104.72L223.76,104.72L225.62,99.53L229.35,99.53L231.22,120.27L233.08,117.68L234.94,117.68L236.81,120.27L238.67,120.27L240.54,122.87L242.4,122.87L251.73,122.87L253.59,125.46L264.78,125.46L266.64,128.05L275.97,128.05L277.83,117.68L287.15,117.68L289.02,120.27L300.21,120.27L302.07,122.87L311.4,122.87L313.26,125.46L320.72,125.46L322.58,128.05L324.45,128.05L326.31,130.64L328.18,130.64L330.04,133.24L333.77,133.24L335.64,138.42L337.5,138.42L339.36,141.01L343.09,146.2L344.96,146.2L346.82,146.2L348.69,151.39L350.55,153.98L352.42,153.98L356.15,159.16L358.01,159.16L359.88,159.16L361.74,166.94L363.6,172.13L365.47,174.72L369.2,179.91L371.06,179.91L372.93,179.91L374.79,187.68L376.66,187.68L378.52,190.28L382.25,200.65L384.12,200.65L385.98,200.65L387.85,208.43L391.57,213.61L393.44,218.8L395.3,221.39L397.17,221.39L399.03,221.39L400.9,231.76L406.49,239.54L408.36,244.72L412.09,244.72L413.95,252.5L421.41,262.87L423.27,262.87L425.14,262.87L427,270.65L428.87,273.24L430.73,273.24L434.46,278.43L436.33,278.43L438.19,278.43L440.06,286.21L441.92,286.21L443.78,288.8L445.65,288.8L447.51,291.39L451.24,291.39L453.11,296.58L454.97,299.17L456.84,299.17L458.7,301.76L460.57,301.76L464.3,301.76L466.16,306.95L468.02,306.95L469.89,309.54L477.35,309.54L479.21,312.13L481.08,314.73L482.94,314.73L484.81,314.73L486.67,317.32L490.4,317.32L492.27,319.91L495.99,319.91L497.86,322.5L503.45,322.5L505.32,325.1L507.18,325.1L509.05,327.69L510.91,327.69L512.78,330.28L516.51,330.28L518.37,332.88L520.23,332.88L522.1,335.47L523.96,335.47L525.83,338.06L529.56,338.06L531.42,340.65L533.29,340.65L535.15,338.06L537.02,340.65L538.88,340.65L542.61,340.65L544.48,343.25L561.26,343.25L563.12,345.84L600.41,345.84L602.28,343.25L607.87,343.25L609.74,345.84L639.57,345.84L641.44,348.43L654.49,348.43L656.35,351.02L663.81,351.02L665.68,353.62L673.14,353.62L675,356.21" style="vector-effect: non-scaling-stroke; fill: none; stroke: rgb(171, 221, 164); stroke-opacity: 1; stroke-width: 2px; opacity: 1;"/></g><g class="points"/><g class="text"/></g><g class="trace scatter traceb4aaa0" style="stroke-miterlimit: 2; opacity: 1;"><g class="fills"/><g class="errorbars"/><g class="lines"><path class="js-line" d="M82.04,408.06L83.91,402.88L85.77,405.47L87.64,402.88L89.5,395.1L91.37,402.88L93.23,402.88L95.1,405.47L96.96,387.32L100.69,369.17L102.56,366.58L104.42,361.4L106.28,351.02L108.15,351.02L110.01,343.25L111.88,343.25L113.74,340.65L121.2,291.39L123.07,275.84L124.93,270.65L126.8,260.28L128.66,252.5L130.52,231.76L136.12,179.91L137.98,166.94L139.85,164.35L141.71,143.61L149.17,81.38L151.04,76.2L152.9,71.01L154.77,58.05L160.36,42.49L162.22,32.12L164.09,37.31L165.95,39.9L167.82,29.53L169.68,26.94L171.55,29.53L173.41,24.34L175.28,21.75L177.14,24.34L179.01,29.53L180.87,24.34L182.73,26.94L184.6,26.94L188.33,26.94L190.19,29.53L192.06,32.12L193.92,29.53L201.38,29.53L203.25,32.12L205.11,34.71L206.98,34.71L216.3,34.71L218.16,37.31L221.89,37.31L223.76,39.9L227.49,39.9L229.35,37.31L231.22,39.9L233.08,39.9L234.94,37.31L236.81,37.31L242.4,37.31L244.27,39.9L246.13,39.9L248,37.31L249.86,39.9L251.73,37.31L255.46,37.31L257.32,39.9L268.51,39.9L270.37,42.49L275.97,42.49L277.83,45.08L285.29,45.08L287.15,47.68L313.26,47.68L315.12,50.27L320.72,50.27L322.58,52.86L328.18,52.86L330.04,55.46L333.77,55.46L335.64,58.05L341.23,58.05L343.09,60.64L348.69,60.64L350.55,63.23L354.28,63.23L356.15,65.83L359.88,65.83L361.74,68.42L365.47,68.42L367.33,71.01L371.06,71.01L372.93,73.6L376.66,73.6L378.52,76.2L380.39,76.2L382.25,78.79L384.12,78.79L385.98,81.38L389.71,81.38L391.57,83.98L395.3,83.98L397.17,86.57L399.03,86.57L400.9,89.16L404.63,89.16L406.49,91.75L408.36,91.75L410.22,94.35L412.09,94.35L413.95,96.94L415.81,96.94L417.68,99.53L419.54,102.12L421.41,102.12L428.87,112.5L430.73,112.5L434.46,117.68L436.33,122.87L438.19,125.46L440.06,125.46L451.24,141.01L453.11,146.2L456.84,151.39L458.7,156.57L460.57,159.16L462.43,164.35L469.89,174.72L471.75,179.91L473.62,182.5L475.48,187.68L477.35,198.05L479.21,203.24L488.54,229.17L490.4,231.76L492.27,236.95L494.13,239.54L497.86,249.91L499.72,252.5L501.59,255.09L503.45,260.28L507.18,265.47L509.05,270.65L512.78,275.84L514.64,281.02L522.1,291.39L523.96,291.39L531.42,301.76L533.29,301.76L535.15,304.36L537.02,304.36L538.88,306.95L540.75,306.95L542.61,309.54L544.48,309.54L546.34,312.13L548.2,312.13L550.07,314.73L551.93,314.73L553.8,317.32L555.66,317.32L557.53,319.91L559.39,319.91L566.85,319.91L568.72,322.5L594.82,322.5L596.69,325.1L607.87,325.1L609.74,327.69L617.2,327.69L619.06,330.28L622.79,330.28L624.65,332.88L630.25,332.88L632.11,335.47L633.98,335.47L635.84,338.06L639.57,338.06L641.44,340.65L645.17,340.65L647.03,343.25L648.9,343.25L650.76,345.84L658.22,345.84L660.08,348.43L675,348.43" style="vector-effect: non-scaling-stroke; fill: none; stroke: rgb(102, 194, 165); stroke-opacity: 1; stroke-width: 2px; opacity: 1;"/></g><g class="points"/><g class="text"/></g><g class="trace scatter trace6ceedd" style="stroke-miterlimit: 2; opacity: 1;"><g class="fills"/><g class="errorbars"/><g class="lines"><path class="js-line" d="M70.86,312.13L72.72,335.47L74.59,133.24L76.45,169.53L78.31,148.79L80.18,247.32L82.04,262.87L83.91,306.95L85.77,312.13L87.64,319.91L89.5,322.5L91.37,340.65L93.23,345.84L96.96,366.58L98.83,358.8L102.56,363.99L104.42,361.4L106.28,366.58L108.15,369.17L110.01,369.17L111.88,371.77L113.74,371.77L115.61,369.17L121.2,361.4L123.07,356.21L126.8,351.02L128.66,345.84L134.25,330.28L136.12,327.69L137.98,322.5L139.85,319.91L141.71,309.54L143.58,304.36L145.44,301.76L147.31,296.58L152.9,288.8L154.77,283.61L156.63,278.43L158.49,275.84L160.36,275.84L162.22,273.24L164.09,273.24L165.95,270.65L171.55,262.87L173.41,262.87L179.01,262.87L180.87,260.28L182.73,257.69L184.6,257.69L193.92,257.69L195.79,255.09L227.49,255.09L229.35,257.69L236.81,257.69L238.67,260.28L248,260.28L249.86,262.87L253.59,262.87L255.46,265.47L262.91,265.47L264.78,268.06L268.51,268.06L270.37,270.65L274.1,270.65L275.97,273.24L277.83,273.24L279.7,275.84L281.56,275.84L283.43,278.43L285.29,278.43L287.15,281.02L289.02,281.02L290.88,283.61L292.75,283.61L294.61,286.21L296.48,288.8L298.34,288.8L302.07,293.99L303.94,293.99L307.67,299.17L309.53,299.17L311.4,301.76L313.26,301.76L316.99,306.95L318.85,306.95L320.72,309.54L322.58,309.54L324.45,312.13L326.31,312.13L330.04,317.32L331.91,317.32L333.77,317.32L335.64,319.91L337.5,319.91L339.36,322.5L343.09,322.5L344.96,325.1L350.55,325.1L352.42,327.69L358.01,327.69L359.88,330.28L371.06,330.28L372.93,332.88L385.98,332.88L387.85,335.47L415.81,335.47L417.68,338.06L447.51,338.06L449.38,340.65L473.62,340.65L475.48,343.25L494.13,343.25L495.99,345.84L510.91,345.84L512.78,348.43L523.96,348.43L525.83,351.02L535.15,351.02L537.02,353.62L544.48,353.62L546.34,356.21L551.93,356.21L553.8,358.8L561.26,358.8L563.12,361.4L572.44,361.4L574.31,363.99L587.36,363.99L589.23,366.58L604.14,366.58L606.01,369.17L630.25,369.17L632.11,371.77L675,371.77" style="vector-effect: non-scaling-stroke; fill: none; stroke: rgb(50, 136, 189); stroke-opacity: 1; stroke-width: 2px; opacity: 1;"/></g><g class="points"/><g class="text"/></g></g></g><g class="overplot"/><path class="xlines-above crisp" style="fill: none;" d="M0,0"/><path class="ylines-above crisp" style="fill: none;" d="M0,0"/><g class="overlines-above"/><g class="xaxislayer-above"><g class="xtick"><text text-anchor="middle" x="0" y="473" transform="translate(132.72,0)" style="font-family: 'Open Sans', verdana, arial, sans-serif; font-size: 12px; fill: rgb(68, 68, 68); fill-opacity: 1; white-space: pre;">Mar 2020</text></g><g class="xtick"><text text-anchor="middle" x="0" y="473" transform="translate(246.46,0)" style="font-family: 'Open Sans', verdana, arial, sans-serif; font-size: 12px; fill: rgb(68, 68, 68); fill-opacity: 1; white-space: pre;">May 2020</text></g><g class="xtick"><text text-anchor="middle" x="0" y="473" transform="translate(360.21,0)" style="font-family: 'Open Sans', verdana, arial, sans-serif; font-size: 12px; fill: rgb(68, 68, 68); fill-opacity: 1; white-space: pre;">Jul 2020</text></g><g class="xtick"><text text-anchor="middle" x="0" y="473" transform="translate(475.81,0)" style="font-family: 'Open Sans', verdana, arial, sans-serif; font-size: 12px; fill: rgb(68, 68, 68); fill-opacity: 1; white-space: pre;">Sep 2020</text></g><g class="xtick"><text text-anchor="middle" x="0" y="473" transform="translate(589.56,0)" style="font-family: 'Open Sans', verdana, arial, sans-serif; font-size: 12px; fill: rgb(68, 68, 68); fill-opacity: 1; white-space: pre;">Nov 2020</text></g><g class="xtick"><text text-anchor="middle" x="0" y="473" transform="translate(703.3,0)" style="font-family: 'Open Sans', verdana, arial, sans-serif; font-size: 12px; fill: rgb(68, 68, 68); fill-opacity: 1; white-space: pre;">Jan 2021</text></g></g><g class="yaxislayer-above"><g class="ytick"><text text-anchor="end" x="59" y="4.199999999999999" transform="translate(0,440.84)" style="font-family: 'Open Sans', verdana, arial, sans-serif; font-size: 12px; fill: rgb(68, 68, 68); fill-opacity: 1; white-space: pre;">0%</text></g><g class="ytick"><text text-anchor="end" x="59" y="4.199999999999999" transform="translate(0,388.99)" style="font-family: 'Open Sans', verdana, arial, sans-serif; font-size: 12px; fill: rgb(68, 68, 68); fill-opacity: 1; white-space: pre;">2%</text></g><g class="ytick"><text text-anchor="end" x="59" y="4.199999999999999" transform="translate(0,337.13)" style="font-family: 'Open Sans', verdana, arial, sans-serif; font-size: 12px; fill: rgb(68, 68, 68); fill-opacity: 1; white-space: pre;">4%</text></g><g class="ytick"><text text-anchor="end" x="59" y="4.199999999999999" transform="translate(0,285.28)" style="font-family: 'Open Sans', verdana, arial, sans-serif; font-size: 12px; fill: rgb(68, 68, 68); fill-opacity: 1; white-space: pre;">6%</text></g><g class="ytick"><text text-anchor="end" x="59" y="4.199999999999999" transform="translate(0,233.43)" style="font-family: 'Open Sans', verdana, arial, sans-serif; font-size: 12px; fill: rgb(68, 68, 68); fill-opacity: 1; white-space: pre;">8%</text></g><g class="ytick"><text text-anchor="end" x="59" y="4.199999999999999" transform="translate(0,181.57)" style="font-family: 'Open Sans', verdana, arial, sans-serif; font-size: 12px; fill: rgb(68, 68, 68); fill-opacity: 1; white-space: pre;">10%</text></g><g class="ytick"><text text-anchor="end" x="59" y="4.199999999999999" transform="translate(0,129.72)" style="font-family: 'Open Sans', verdana, arial, sans-serif; font-size: 12px; fill: rgb(68, 68, 68); fill-opacity: 1; white-space: pre;">12%</text></g><g class="ytick"><text text-anchor="end" x="59" y="4.199999999999999" transform="translate(0,77.86)" style="font-family: 'Open Sans', verdana, arial, sans-serif; font-size: 12px; fill: rgb(68, 68, 68); fill-opacity: 1; white-space: pre;">14%</text></g><g class="ytick"><text text-anchor="end" x="59" y="4.199999999999999" transform="translate(0,26.01)" style="font-family: 'Open Sans', verdana, arial, sans-serif; font-size: 12px; fill: rgb(68, 68, 68); fill-opacity: 1; white-space: pre;">16%</text></g></g><g class="overaxes-above"/></g></g><g class="polarlayer"/><g class="ternarylayer"/><g class="geolayer"/><g class="funnelarealayer"/><g class="pielayer"/><g class="treemaplayer"/><g class="sunburstlayer"/><g class="glimages"/><defs id="topdefs-de7cea"><g class="clips"/><clipPath id="legendde7cea"><rect width="142" height="197" x="0" y="0"/></clipPath></defs><g class="layer-above"><g class="imagelayer"/><g class="shapelayer"/></g><g class="infolayer"><g class="legend" pointer-events="all" transform="translate(748.5, 133.75)"><rect class="bg" shape-rendering="crispEdges" style="stroke: rgb(68, 68, 68); stroke-opacity: 1; fill: rgb(255, 255, 255); fill-opacity: 1; stroke-width: 0px;" width="142" height="197" x="0" y="0"/><g class="scrollbox" transform="translate(0, 0)" clip-path="url('#legendde7cea')"><text class="legendtitletext user-select-none" text-anchor="start" x="2" y="15.600000000000001" style="font-family: 'Open Sans', verdana, arial, sans-serif; font-size: 12px; fill: rgb(68, 68, 68); fill-opacity: 1; white-space: pre;">Country</text><g class="groups"><g class="traces" transform="translate(0, 30.1)" style="opacity: 1;"><text class="legendtext user-select-none" text-anchor="start" x="40" y="4.680000000000001" style="font-family: 'Open Sans', verdana, arial, sans-serif; font-size: 12px; fill: rgb(68, 68, 68); fill-opacity: 1; white-space: pre;">Brazil</text><g class="layers" style="opacity: 1;"><g class="legendfill"/><g class="legendlines"><path class="js-line" d="M5,0h30" style="fill: none; stroke: rgb(213, 62, 79); stroke-opacity: 1; stroke-width: 2px;"/></g><g class="legendsymbols"><g class="legendpoints"/></g></g><rect class="legendtoggle" pointer-events="all" x="0" y="-9.5" width="136.359375" height="19" style="cursor: pointer; fill: rgb(0, 0, 0); fill-opacity: 0;"/></g><g class="traces" transform="translate(0, 49.1)" style="opacity: 1;"><text class="legendtext user-select-none" text-anchor="start" x="40" y="4.680000000000001" style="font-family: 'Open Sans', verdana, arial, sans-serif; font-size: 12px; fill: rgb(68, 68, 68); fill-opacity: 1; white-space: pre;">China</text><g class="layers" style="opacity: 1;"><g class="legendfill"/><g class="legendlines"><path class="js-line" d="M5,0h30" style="fill: none; stroke: rgb(244, 109, 67); stroke-opacity: 1; stroke-width: 2px;"/></g><g class="legendsymbols"><g class="legendpoints"/></g></g><rect class="legendtoggle" pointer-events="all" x="0" y="-9.5" width="136.359375" height="19" style="cursor: pointer; fill: rgb(0, 0, 0); fill-opacity: 0;"/></g><g class="traces" transform="translate(0, 68.1)" style="opacity: 1;"><text class="legendtext user-select-none" text-anchor="start" x="40" y="4.680000000000001" style="font-family: 'Open Sans', verdana, arial, sans-serif; font-size: 12px; fill: rgb(68, 68, 68); fill-opacity: 1; white-space: pre;">Germany</text><g class="layers" style="opacity: 1;"><g class="legendfill"/><g class="legendlines"><path class="js-line" d="M5,0h30" style="fill: none; stroke: rgb(253, 174, 97); stroke-opacity: 1; stroke-width: 2px;"/></g><g class="legendsymbols"><g class="legendpoints"/></g></g><rect class="legendtoggle" pointer-events="all" x="0" y="-9.5" width="136.359375" height="19" style="cursor: pointer; fill: rgb(0, 0, 0); fill-opacity: 0;"/></g><g class="traces" transform="translate(0, 87.1)" style="opacity: 1;"><text class="legendtext user-select-none" text-anchor="start" x="40" y="4.680000000000001" style="font-family: 'Open Sans', verdana, arial, sans-serif; font-size: 12px; fill: rgb(68, 68, 68); fill-opacity: 1; white-space: pre;">India</text><g class="layers" style="opacity: 1;"><g class="legendfill"/><g class="legendlines"><path class="js-line" d="M5,0h30" style="fill: none; stroke: rgb(254, 224, 139); stroke-opacity: 1; stroke-width: 2px;"/></g><g class="legendsymbols"><g class="legendpoints"/></g></g><rect class="legendtoggle" pointer-events="all" x="0" y="-9.5" width="136.359375" height="19" style="cursor: pointer; fill: rgb(0, 0, 0); fill-opacity: 0;"/></g><g class="traces" transform="translate(0, 106.1)" style="opacity: 1;"><text class="legendtext user-select-none" text-anchor="start" x="40" y="4.680000000000001" style="font-family: 'Open Sans', verdana, arial, sans-serif; font-size: 12px; fill: rgb(68, 68, 68); fill-opacity: 1; white-space: pre;">Italy</text><g class="layers" style="opacity: 1;"><g class="legendfill"/><g class="legendlines"><path class="js-line" d="M5,0h30" style="fill: none; stroke: rgb(255, 255, 191); stroke-opacity: 1; stroke-width: 2px;"/></g><g class="legendsymbols"><g class="legendpoints"/></g></g><rect class="legendtoggle" pointer-events="all" x="0" y="-9.5" width="136.359375" height="19" style="cursor: pointer; fill: rgb(0, 0, 0); fill-opacity: 0;"/></g><g class="traces" transform="translate(0, 125.1)" style="opacity: 1;"><text class="legendtext user-select-none" text-anchor="start" x="40" y="4.680000000000001" style="font-family: 'Open Sans', verdana, arial, sans-serif; font-size: 12px; fill: rgb(68, 68, 68); fill-opacity: 1; white-space: pre;">Russia</text><g class="layers" style="opacity: 1;"><g class="legendfill"/><g class="legendlines"><path class="js-line" d="M5,0h30" style="fill: none; stroke: rgb(230, 245, 152); stroke-opacity: 1; stroke-width: 2px;"/></g><g class="legendsymbols"><g class="legendpoints"/></g></g><rect class="legendtoggle" pointer-events="all" x="0" y="-9.5" width="136.359375" height="19" style="cursor: pointer; fill: rgb(0, 0, 0); fill-opacity: 0;"/></g><g class="traces" transform="translate(0, 144.1)" style="opacity: 1;"><text class="legendtext user-select-none" text-anchor="start" x="40" y="4.680000000000001" style="font-family: 'Open Sans', verdana, arial, sans-serif; font-size: 12px; fill: rgb(68, 68, 68); fill-opacity: 1; white-space: pre;">Spain</text><g class="layers" style="opacity: 1;"><g class="legendfill"/><g class="legendlines"><path class="js-line" d="M5,0h30" style="fill: none; stroke: rgb(171, 221, 164); stroke-opacity: 1; stroke-width: 2px;"/></g><g class="legendsymbols"><g class="legendpoints"/></g></g><rect class="legendtoggle" pointer-events="all" x="0" y="-9.5" width="136.359375" height="19" style="cursor: pointer; fill: rgb(0, 0, 0); fill-opacity: 0;"/></g><g class="traces" transform="translate(0, 163.1)" style="opacity: 1;"><text class="legendtext user-select-none" text-anchor="start" x="40" y="4.680000000000001" style="font-family: 'Open Sans', verdana, arial, sans-serif; font-size: 12px; fill: rgb(68, 68, 68); fill-opacity: 1; white-space: pre;">United Kingdom</text><g class="layers" style="opacity: 1;"><g class="legendfill"/><g class="legendlines"><path class="js-line" d="M5,0h30" style="fill: none; stroke: rgb(102, 194, 165); stroke-opacity: 1; stroke-width: 2px;"/></g><g class="legendsymbols"><g class="legendpoints"/></g></g><rect class="legendtoggle" pointer-events="all" x="0" y="-9.5" width="136.359375" height="19" style="cursor: pointer; fill: rgb(0, 0, 0); fill-opacity: 0;"/></g><g class="traces" transform="translate(0, 182.1)" style="opacity: 1;"><text class="legendtext user-select-none" text-anchor="start" x="40" y="4.680000000000001" style="font-family: 'Open Sans', verdana, arial, sans-serif; font-size: 12px; fill: rgb(68, 68, 68); fill-opacity: 1; white-space: pre;">United States</text><g class="layers" style="opacity: 1;"><g class="legendfill"/><g class="legendlines"><path class="js-line" d="M5,0h30" style="fill: none; stroke: rgb(50, 136, 189); stroke-opacity: 1; stroke-width: 2px;"/></g><g class="legendsymbols"><g class="legendpoints"/></g></g><rect class="legendtoggle" pointer-events="all" x="0" y="-9.5" width="136.359375" height="19" style="cursor: pointer; fill: rgb(0, 0, 0); fill-opacity: 0;"/></g></g></g><rect class="scrollbar" rx="20" ry="3" width="0" height="0" style="fill: rgb(128, 139, 164); fill-opacity: 1;" x="0" y="0"/></g><g class="g-gtitle"><text class="gtitle" x="450" y="12.5" text-anchor="middle" dy="0em" style="font-family: 'Open Sans', verdana, arial, sans-serif; font-size: 17px; fill: rgb(68, 68, 68); opacity: 1; font-weight: normal; white-space: pre;">Plot of culmulative deaths by COVID-19 over 2020 by country</text></g><g class="g-xtitle" transform="translate(0,-15)"><text class="xtitle" x="397.5" y="512" text-anchor="middle" style="font-family: 'Open Sans', verdana, arial, sans-serif; font-size: 14px; fill: rgb(68, 68, 68); opacity: 1; font-weight: normal; white-space: pre;">Date</text></g><g class="g-ytitle"><text class="ytitle" transform="rotate(-90,22,242.5)" x="22" y="242.5" text-anchor="middle" style="font-family: 'Open Sans', verdana, arial, sans-serif; font-size: 14px; fill: rgb(68, 68, 68); opacity: 1; font-weight: normal; white-space: pre;">Total Deaths/Total Cases</text></g></g></svg>